# xmcd
# 
# Track frame offsets:
#     150
#     16338
#     31288
#     52613
#     68338
#     82688
#     100025
#     122088
#     138013
#     154713
#     170513
#     187288
#     204838
#     224738
#     244075
#     264713
#     284338
#     303688
# 
# Disc length: 4347
# 
# Revision: 8
# Processed by: cddbd v1.5.2PL0 Copyright (c) Steve Scherf et al.
# Submitted via: fre:ac v1.0.31
# 
DISCID=f110f912
DTITLE=陈百强 - 离不开陈百强纪念歌集80-93 Disc 1
DYEAR=1993
DGENRE=Pop
TTITLE0=喝采
TTITLE1=太阳花
TTITLE2=有了你
TTITLE3=念亲恩
TTITLE4=涟漪
TTITLE5=不
TTITLE6=疾风
TTITLE7=偏偏喜欢你
TTITLE8=摘星
TTITLE9=画出彩虹
TTITLE10=粉红色的一生
TTITLE11=等
TTITLE12=深爱着你
TTITLE13=盼望的缘份
TTITLE14=当我想起你
TTITLE15=试问谁没错
TTITLE16=双星情歌
TTITLE17=只因爱你
EXTD=
EXTT0=
EXTT1=
EXTT2=
EXTT3=
EXTT4=
EXTT5=
EXTT6=
EXTT7=
EXTT8=
EXTT9=
EXTT10=
EXTT11=
EXTT12=
EXTT13=
EXTT14=
EXTT15=
EXTT16=
EXTT17=
PLAYORDER=
